<svg width="27" height="25" viewBox="0 0 27 25" fill="none" xmlns="http://www.w3.org/2000/svg">
<path d="M3.42834 2.32275C3.9609 2.3228 4.39221 2.75503 4.39221 3.2876C4.39216 3.82012 3.96087 4.25141 3.42834 4.25146C2.89578 4.25146 2.46355 3.82016 2.4635 3.2876C2.4635 2.755 2.89574 2.32275 3.42834 2.32275Z" fill="black" stroke="black" stroke-width="0.3"/>
<path d="M3.42676 -0.150391C5.38182 -0.150391 6.97266 1.44041 6.97266 3.39551C6.97264 3.53047 6.96187 3.66389 6.94629 3.7959H22.0752C24.5282 3.79615 26.5234 5.7921 26.5234 8.24512C26.5234 10.6982 24.5282 12.6941 22.0752 12.6943H4.29883C2.33451 12.6944 0.736328 14.2925 0.736328 16.2568V16.4775C0.736328 18.4421 2.33452 20.04 4.29883 20.04H19.2217C19.4416 18.2273 20.9858 16.8174 22.8574 16.8174C24.8791 16.8175 26.5234 18.4619 26.5234 20.4834C26.5234 22.5052 24.8792 24.1502 22.8574 24.1504C20.986 24.1504 19.4415 22.7399 19.2217 20.9268H4.29883C1.84562 20.9267 -0.150391 18.9308 -0.150391 16.4775V16.2568C-0.150391 13.8039 1.84563 11.808 4.29883 11.8076H22.0752C24.0393 11.8074 25.6377 10.2093 25.6377 8.24512C25.6376 6.28101 24.0393 4.68287 22.0752 4.68262H6.72461C6.58325 5.04471 6.38551 5.38521 6.12988 5.68652L3.76465 8.47266C3.68046 8.57188 3.55665 8.62891 3.42676 8.62891C3.29705 8.6288 3.17395 8.5717 3.08984 8.47266L0.723633 5.6875C0.180596 5.04718 -0.118152 4.23291 -0.118164 3.39551C-0.118164 1.44055 1.47184 -0.150202 3.42676 -0.150391ZM22.8574 17.7031C21.3245 17.7031 20.0772 18.9505 20.0771 20.4834C20.0771 22.0164 21.3245 23.2637 22.8574 23.2637C24.3903 23.2635 25.6377 22.0163 25.6377 20.4834C25.6376 18.9506 24.3903 17.7033 22.8574 17.7031ZM3.42676 0.736328C1.96075 0.736517 0.767578 1.92946 0.767578 3.39551C0.76759 4.02281 0.992105 4.63313 1.39941 5.11328L3.42676 7.50195L5.45508 5.11328C5.86212 4.63349 6.08683 4.02309 6.08691 3.39551C6.08691 1.92936 4.89295 0.736328 3.42676 0.736328Z" fill="black" stroke="black" stroke-width="0.3"/>
<path d="M22.8569 19.5771C23.3568 19.5774 23.7622 19.9835 23.7622 20.4834C23.762 20.9831 23.3567 21.3885 22.8569 21.3887C22.357 21.3887 21.9509 20.9833 21.9507 20.4834C21.9507 19.9833 22.3569 19.5771 22.8569 19.5771Z" fill="black" stroke="black" stroke-width="0.3"/>
</svg>
