<svg width="49" height="32" viewBox="0 0 49 32" fill="none" xmlns="http://www.w3.org/2000/svg">
<path fill-rule="evenodd" clip-rule="evenodd" d="M40.9574 9.52096L48.4839 17.9871C48.8016 18.3453 48.9759 18.8048 48.9759 19.2805V26.8284C48.9759 27.9018 48.102 28.7756 47.0287 28.7756H46.2243C45.8084 30.6186 44.1604 32 42.1933 32C40.2261 32 38.5781 30.6186 38.1622 28.7756H32.591H31.1137H24.108L24.1685 27.2982H31.1137V21.8667H24.5668C24.1591 21.8667 23.8281 21.5365 23.8281 21.128C23.8281 20.7195 24.1591 20.3893 24.5668 20.3893H31.1137V8.86722V4.09012C31.1137 2.64968 30.2258 1.47738 29.1332 1.47738H23.9087V0H29.1332C31.0398 0 32.591 1.8349 32.591 4.09012V8.86722H39.5022C40.0577 8.86722 40.5881 9.10508 40.9574 9.52096ZM46.5921 18.0824H37.6141C37.4258 18.0824 37.2721 17.9295 37.2721 17.7411V13.7226C37.2721 13.5343 37.4258 13.3806 37.6141 13.3806H42.4119L46.5921 18.0824ZM42.1925 30.5226C40.7277 30.5226 39.5347 29.3304 39.5347 27.8648C39.5347 26.3993 40.727 25.2063 42.1925 25.2063C43.6581 25.2063 44.8511 26.3985 44.8511 27.8648C44.8511 29.3304 43.6588 30.5226 42.1925 30.5226ZM47.0287 27.2982H46.2849C46.0071 25.2861 44.2801 23.7296 42.1925 23.7296C40.105 23.7296 38.3787 25.2861 38.1009 27.2982H32.5903V10.3446H39.5015C39.6359 10.3446 39.763 10.4022 39.8531 10.5027L41.0985 11.9032H37.6141C36.611 11.9032 35.7947 12.7195 35.7947 13.7226V17.7411C35.7947 18.7435 36.6102 19.5597 37.6141 19.5597H47.4985V26.8284C47.4985 27.0877 47.288 27.2982 47.0287 27.2982Z" fill="black"/>
<path fill-rule="evenodd" clip-rule="evenodd" d="M17.1293 9.52096L24.6558 17.9871C24.9734 18.3453 25.1478 18.8048 25.1478 19.2805V26.8284C25.1478 27.9018 24.2739 28.7756 23.2006 28.7756H22.3962C21.9803 30.6186 20.3323 32 18.3651 32C16.398 32 14.75 30.6186 14.3341 28.7756H8.76291H7.28553H0.279848L0.340419 27.2982H7.28553V21.8667H0.738688C0.330932 21.8667 0 21.5365 0 21.128C0 20.7195 0.330932 20.3893 0.738688 20.3893H7.28553V8.86722V4.09012C7.28553 2.64968 6.39763 1.47738 5.30511 1.47738H0.0805731V0H5.30511C7.21167 0 8.76291 1.8349 8.76291 4.09012V8.86722H15.6741C16.2296 8.86722 16.76 9.10508 17.1293 9.52096ZM22.764 18.0824H13.786C13.5976 18.0824 13.444 17.9295 13.444 17.7411V13.7226C13.444 13.5343 13.5976 13.3806 13.786 13.3806H18.5838L22.764 18.0824ZM18.3644 30.5226C16.8996 30.5226 15.7066 29.3304 15.7066 27.8648C15.7066 26.3993 16.8988 25.2063 18.3644 25.2063C19.83 25.2063 21.0229 26.3985 21.0229 27.8648C21.0229 29.3304 19.8307 30.5226 18.3644 30.5226ZM23.2006 27.2982H22.4567C22.179 25.2861 20.4519 23.7296 18.3644 23.7296C16.2769 23.7296 14.5505 25.2861 14.2728 27.2982H8.76217V10.3446H15.6733C15.8078 10.3446 15.9348 10.4022 16.025 10.5027L17.2704 11.9032H13.786C12.7829 11.9032 11.9666 12.7195 11.9666 13.7226V17.7411C11.9666 18.7435 12.7821 19.5597 13.786 19.5597H23.6704V26.8284C23.6704 27.0877 23.4599 27.2982 23.2006 27.2982Z" fill="black"/>
</svg>
