<svg xmlns="http://www.w3.org/2000/svg"  viewBox="0 0 128 128" width="128px" height="128px"><path d="M34,127h60c12.68,0,23-10.32,23-23V24c0-12.68-10.32-23-23-23H34C21.32,1,11,11.32,11,24v80C11,116.68,21.32,127,34,127z M17,24c0-9.37,7.63-17,17-17h60c9.37,0,17,7.63,17,17v80c0,9.37-7.63,17-17,17H34c-9.37,0-17-7.63-17-17V24z"/><path d="M34,57h60c1.66,0,3-1.34,3-3s-1.34-3-3-3H34c-1.66,0-3,1.34-3,3S32.34,57,34,57z"/><path d="M34,77h60c1.66,0,3-1.34,3-3s-1.34-3-3-3H34c-1.66,0-3,1.34-3,3S32.34,77,34,77z"/><path d="M34,97h30c1.66,0,3-1.34,3-3s-1.34-3-3-3H34c-1.66,0-3,1.34-3,3S32.34,97,34,97z"/></svg>