<svg width="47" height="32" viewBox="0 0 47 32" fill="none" xmlns="http://www.w3.org/2000/svg">
<path d="M45.9088 17.9871L38.3823 9.52096C38.0129 9.10508 37.4825 8.86722 36.9271 8.86722H30.0159V4.09012C30.0159 1.8349 28.4646 0 26.5581 0H3.4578C1.55125 0 0 1.8349 0 4.09012V26.4207C0 27.7193 0.919668 28.7756 2.04912 28.7756H7.42456C7.84044 30.6186 9.48846 32 11.4556 32C13.4227 32 15.07 30.6186 15.4866 28.7756H28.5385H30.0159H35.5871C36.003 30.6186 37.651 32 39.6181 32C41.5852 32 43.2332 30.6186 43.6491 28.7756H44.4536C45.5269 28.7756 46.4007 27.9018 46.4007 26.8284V19.2805C46.4007 18.8048 46.2264 18.3453 45.9088 17.9871ZM44.017 18.0824H35.039C34.8506 18.0824 34.697 17.9295 34.697 17.7411V13.7226C34.697 13.5343 34.8506 13.3806 35.039 13.3806H39.8367L44.017 18.0824ZM11.4556 30.5226C9.99003 30.5226 8.79778 29.3304 8.79778 27.8648C8.79778 26.3993 9.99003 25.2063 11.4556 25.2063C12.9211 25.2063 14.1134 26.3985 14.1134 27.8648C14.1134 29.3304 12.9211 30.5226 11.4556 30.5226ZM15.5472 27.2982C15.2694 25.2861 13.5431 23.7296 11.4556 23.7296C9.36805 23.7296 7.64174 25.2861 7.36399 27.2982H2.04912C1.77876 27.2982 1.47738 26.9385 1.47738 26.4207V4.09012C1.47738 2.64968 2.36602 1.47738 3.4578 1.47738H26.5581C27.6506 1.47738 28.5385 2.64968 28.5385 4.09012V8.86722V20.3893H8.0591C7.65134 20.3893 7.32041 20.7195 7.32041 21.128C7.32041 21.5365 7.65134 21.8667 8.0591 21.8667H28.5385V27.2982H15.5472ZM39.6174 30.5226C38.1525 30.5226 36.9596 29.3304 36.9596 27.8648C36.9596 26.3993 38.1518 25.2063 39.6174 25.2063C41.0829 25.2063 42.2759 26.3985 42.2759 27.8648C42.2759 29.3304 41.0837 30.5226 39.6174 30.5226ZM44.4536 27.2982H43.7097C43.4319 25.2861 41.7049 23.7296 39.6174 23.7296C37.5298 23.7296 35.8035 25.2861 35.5258 27.2982H30.0151V10.3446H36.9263C37.0608 10.3446 37.1878 10.4022 37.2779 10.5027L38.5234 11.9032H35.039C34.0358 11.9032 33.2196 12.7195 33.2196 13.7226V17.7411C33.2196 18.7435 34.0351 19.5597 35.039 19.5597H44.9234V26.8284C44.9234 27.0877 44.7128 27.2982 44.4536 27.2982Z" fill="black"/>
</svg>
